<svg width="2051" height="640" viewBox="0 0 2051 640" fill="none" xmlns="http://www.w3.org/2000/svg">
<path d="M160 432C221.856 432 272 381.856 272 320C272 258.144 221.856 208 160 208C98.1441 208 48 258.144 48 320C48 381.856 98.1441 432 160 432Z" fill="#1D9E75"/>
<path opacity="0.55" d="M512 200C551.765 200 584 167.765 584 128C584 88.2355 551.765 56 512 56C472.235 56 440 88.2355 440 128C440 167.765 472.235 200 512 200Z" fill="#1D9E75"/>
<path opacity="0.55" d="M512 584C551.765 584 584 551.765 584 512C584 472.235 551.765 440 512 440C472.235 440 440 472.235 440 512C440 551.765 472.235 584 512 584Z" fill="#1D9E75"/>
<path opacity="0.5" d="M272 256L448 160" stroke="#1D9E75" stroke-width="50"/>
<path opacity="0.5" d="M272 384L448 480" stroke="#1D9E75" stroke-width="50"/>
<path d="M777.419 457C772 457 764.774 456.871 755.742 456.613C746.968 456.097 738.194 455.839 729.419 455.839C721.161 455.839 712.516 455.968 703.484 456.226C694.71 456.226 686.323 456.355 678.323 456.613C670.323 456.613 663.484 456.742 657.806 457V441.903L670.968 440.742C678.968 439.968 684.903 438.677 688.774 436.871C692.903 434.806 695.613 431.71 696.903 427.581C698.194 423.194 698.839 416.871 698.839 408.613V231.323C698.839 223.065 698.194 216.871 696.903 212.742C695.613 208.355 692.903 205.258 688.774 203.452C684.903 201.387 678.968 199.968 670.968 199.194L657.806 198.032V182.935C663.484 182.935 670.323 183.065 678.323 183.323C686.323 183.581 694.71 183.839 703.484 184.097C712.516 184.097 721.161 184.097 729.419 184.097C738.194 184.097 746.968 183.968 755.742 183.71C764.774 183.194 772 182.935 777.419 182.935H788.645C841.29 182.935 881.032 194.032 907.871 216.226C934.71 238.419 948.129 271.065 948.129 314.161C948.129 344.097 941.677 369.774 928.774 391.194C916.129 412.355 897.806 428.613 873.806 439.968C850.065 451.323 821.29 457 787.484 457H777.419ZM789.032 442.29C822.839 442.29 847.484 432.484 862.968 412.871C878.71 393 886.581 361.903 886.581 319.581C886.581 277 878.839 246.032 863.355 226.677C847.871 207.323 822.968 197.645 788.645 197.645H758.065V409.387C758.065 418.419 758.839 425.387 760.387 430.29C761.935 434.935 764.903 438.161 769.29 439.968C773.935 441.516 780.516 442.29 789.032 442.29ZM1018.94 357.129V303.323C1018.94 292.484 1017.13 285 1013.52 280.871C1009.91 276.742 1002.94 274.161 992.615 273.129L982.55 271.968V256.871C988.486 257.387 993.905 257.774 998.808 258.032C1003.71 258.032 1009.13 258.032 1015.07 258.032C1026.42 258.032 1036.74 257.645 1046.03 256.871C1055.58 255.839 1064.49 254.419 1072.74 252.613V256.871V357.129H1018.94ZM1046.03 455.839C1034.16 455.839 1023.32 455.968 1013.52 456.226C1003.97 456.484 993.647 456.742 982.55 457V441.903L993.002 441.129C1003.07 440.097 1009.91 437.516 1013.52 433.387C1017.13 429.258 1018.94 422.032 1018.94 411.71V357.129H1072.74V411.71C1072.74 422.032 1074.55 429.258 1078.16 433.387C1081.78 437.516 1088.61 440.097 1098.68 441.129L1109.13 441.903V457C1098.29 456.742 1087.97 456.484 1078.16 456.226C1068.36 455.968 1057.65 455.839 1046.03 455.839ZM1046.03 217.774C1036.74 217.774 1028.61 215.065 1021.65 209.645C1014.94 203.968 1011.58 196.226 1011.58 186.419C1011.58 177.129 1014.94 169.774 1021.65 164.355C1028.61 158.677 1036.74 155.839 1046.03 155.839C1055.32 155.839 1063.32 158.677 1070.03 164.355C1077 169.774 1080.49 177.258 1080.49 186.806C1080.49 196.355 1077 203.968 1070.03 209.645C1063.32 215.065 1055.32 217.774 1046.03 217.774ZM1194.63 455.839C1182.76 455.839 1171.92 455.968 1162.11 456.226C1152.56 456.484 1142.24 456.742 1131.14 457V441.903L1141.6 441.129C1151.66 440.097 1158.5 437.516 1162.11 433.387C1165.72 429.258 1167.53 422.032 1167.53 411.71V357.129H1221.34V411.71C1221.34 422.032 1223.14 429.258 1226.76 433.387C1230.37 437.516 1237.21 440.097 1247.27 441.129L1257.72 441.903V457C1246.89 456.742 1236.56 456.484 1226.76 456.226C1216.95 455.968 1206.24 455.839 1194.63 455.839ZM1167.53 357.129V204.226C1167.53 193.645 1165.72 186.29 1162.11 182.161C1158.5 178.032 1151.53 175.323 1141.21 174.032L1131.14 173.258V158.161C1137.08 158.419 1142.5 158.677 1147.4 158.935C1152.31 158.935 1157.72 158.935 1163.66 158.935C1175.02 158.935 1185.34 158.548 1194.63 157.774C1204.18 156.742 1213.08 155.452 1221.34 153.903V158.161V357.129H1167.53ZM1314.25 357.129V303.323C1314.25 292.484 1312.44 285 1308.83 280.871C1305.22 276.742 1298.25 274.161 1287.93 273.129L1277.86 271.968V256.871C1283.8 257.387 1289.22 257.774 1294.12 258.032C1299.02 258.032 1304.44 258.032 1310.38 258.032C1321.73 258.032 1332.06 257.645 1341.35 256.871C1350.9 255.839 1359.8 254.419 1368.06 252.613V256.871V357.129H1314.25ZM1341.35 455.839C1329.48 455.839 1318.64 455.968 1308.83 456.226C1299.28 456.484 1288.96 456.742 1277.86 457V441.903L1288.31 441.129C1298.38 440.097 1305.22 437.516 1308.83 433.387C1312.44 429.258 1314.25 422.032 1314.25 411.71V357.129H1368.06V411.71C1368.06 422.032 1369.86 429.258 1373.48 433.387C1377.09 437.516 1383.93 440.097 1393.99 441.129L1404.44 441.903V457C1393.6 456.742 1383.28 456.484 1373.48 456.226C1363.67 455.968 1352.96 455.839 1341.35 455.839ZM1341.35 217.774C1332.06 217.774 1323.93 215.065 1316.96 209.645C1310.25 203.968 1306.9 196.226 1306.9 186.419C1306.9 177.129 1310.25 169.774 1316.96 164.355C1323.93 158.677 1332.06 155.839 1341.35 155.839C1350.64 155.839 1358.64 158.677 1365.35 164.355C1372.31 169.774 1375.8 177.258 1375.8 186.806C1375.8 196.355 1372.31 203.968 1365.35 209.645C1358.64 215.065 1350.64 217.774 1341.35 217.774ZM1507.26 549.516C1479.9 549.516 1458.61 545 1443.39 535.968C1428.16 527.194 1420.55 515.71 1420.55 501.516C1420.55 489.645 1425.19 479.323 1434.48 470.548C1443.77 461.774 1457.32 454.419 1475.13 448.484L1485.19 453.903C1478.74 457.774 1473.58 463.194 1469.71 470.161C1466.1 477.129 1464.29 484.742 1464.29 493C1464.29 506.419 1468.81 516.742 1477.84 523.968C1486.87 531.194 1499.64 534.806 1516.16 534.806C1529.32 534.806 1540.81 532.613 1550.61 528.226C1560.42 524.097 1568.16 518.29 1573.84 510.806C1579.52 503.581 1582.35 495.194 1582.35 485.645C1582.35 476.613 1579.39 469.774 1573.45 465.129C1567.77 460.742 1559.13 458.548 1547.52 458.548H1506.48C1489.71 458.548 1476.42 455.323 1466.61 448.871C1456.81 442.161 1451.9 433.387 1451.9 422.548C1451.9 413.516 1455 405.258 1461.19 397.774C1467.39 390.032 1476.93 382.677 1489.84 375.71L1503 377.258C1498.1 380.613 1494.61 383.968 1492.55 387.323C1490.48 390.419 1489.45 393.774 1489.45 397.387C1489.45 402.548 1491.64 406.548 1496.03 409.387C1500.68 411.968 1507.13 413.258 1515.39 413.258H1557.97C1580.42 413.258 1597.58 417.774 1609.45 426.806C1621.32 435.839 1627.26 449.129 1627.26 466.677C1627.26 482.935 1622.22 497.258 1612.16 509.645C1602.1 522.29 1588.03 532.097 1569.97 539.065C1552.16 546.032 1531.26 549.516 1507.26 549.516ZM1515 379.581C1489.97 379.581 1470.22 373.903 1455.77 362.548C1441.58 351.194 1434.48 335.452 1434.48 315.323C1434.48 295.452 1441.58 279.839 1455.77 268.484C1470.22 257.129 1489.97 251.452 1515 251.452C1540.03 251.452 1559.52 257.129 1573.45 268.484C1587.39 279.581 1594.35 295.194 1594.35 315.323C1594.35 335.452 1587.39 351.194 1573.45 362.548C1559.52 373.903 1540.03 379.581 1515 379.581ZM1515.39 364.871C1525.45 364.871 1533.06 360.871 1538.22 352.871C1543.39 344.613 1545.97 332.097 1545.97 315.323C1545.97 298.548 1543.39 286.161 1538.22 278.161C1533.32 269.903 1525.71 265.774 1515.39 265.774C1505.32 265.774 1497.71 269.903 1492.55 278.161C1487.39 286.161 1484.81 298.548 1484.81 315.323C1484.81 332.097 1487.39 344.613 1492.55 352.871C1497.71 360.871 1505.32 364.871 1515.39 364.871ZM1628.81 304.484C1623.64 304.484 1619.77 302.806 1617.19 299.452C1614.87 296.097 1612.93 292.226 1611.39 287.839C1610.1 283.452 1608.68 279.71 1607.13 276.613C1605.58 273.258 1603.26 271.581 1600.16 271.581C1598.61 271.581 1596.42 272.484 1593.58 274.29C1590.74 275.839 1587.77 278.161 1584.68 281.258C1581.84 284.097 1579.13 287.839 1576.55 292.484L1569.97 280.871C1575.39 272.097 1582.61 265 1591.64 259.581C1600.68 254.161 1609.97 251.452 1619.52 251.452C1628.03 251.452 1634.87 253.903 1640.03 258.806C1645.19 263.71 1647.77 270.548 1647.77 279.323C1647.77 286.806 1645.97 292.871 1642.35 297.516C1639 302.161 1634.48 304.484 1628.81 304.484ZM1703.78 357.129V303.323C1703.78 292.484 1701.97 285 1698.36 280.871C1694.75 276.742 1687.78 274.161 1677.46 273.129L1667.39 271.968V256.871C1673.33 257.387 1678.75 257.774 1683.65 258.032C1688.56 258.032 1693.97 258.032 1699.91 258.032C1711.27 258.032 1721.59 257.645 1730.88 256.871C1740.43 255.839 1749.33 254.419 1757.59 252.613V256.871V357.129H1703.78ZM1730.88 455.839C1719.01 455.839 1708.17 455.968 1698.36 456.226C1688.81 456.484 1678.49 456.742 1667.39 457V441.903L1677.85 441.129C1687.91 440.097 1694.75 437.516 1698.36 433.387C1701.97 429.258 1703.78 422.032 1703.78 411.71V357.129H1757.59V411.71C1757.59 422.032 1759.39 429.258 1763.01 433.387C1766.62 437.516 1773.46 440.097 1783.52 441.129L1793.97 441.903V457C1783.14 456.742 1772.81 456.484 1763.01 456.226C1753.2 455.968 1742.49 455.839 1730.88 455.839ZM1730.88 217.774C1721.59 217.774 1713.46 215.065 1706.49 209.645C1699.78 203.968 1696.43 196.226 1696.43 186.419C1696.43 177.129 1699.78 169.774 1706.49 164.355C1713.46 158.677 1721.59 155.839 1730.88 155.839C1740.17 155.839 1748.17 158.677 1754.88 164.355C1761.85 169.774 1765.33 177.258 1765.33 186.806C1765.33 196.355 1761.85 203.968 1754.88 209.645C1748.17 215.065 1740.17 217.774 1730.88 217.774ZM1944.1 357.129V306.032C1944.1 292.613 1940.87 282.806 1934.42 276.613C1928.22 270.161 1918.68 266.935 1905.77 266.935C1897 266.935 1889.77 268.226 1884.1 270.806C1878.68 273.387 1875.97 276.742 1875.97 280.871C1875.97 283.71 1877 286.806 1879.06 290.161C1881.13 293.258 1883.06 296.613 1884.87 300.226C1886.93 303.581 1887.97 307.323 1887.97 311.452C1887.97 317.129 1885.52 321.774 1880.61 325.387C1875.71 328.742 1869.39 330.419 1861.64 330.419C1852.61 330.419 1845.52 327.968 1840.35 323.065C1835.19 317.903 1832.61 311.065 1832.61 302.548C1832.61 292.484 1836.22 283.581 1843.45 275.839C1850.68 268.097 1860.87 262.161 1874.03 258.032C1887.19 253.645 1902.29 251.452 1919.32 251.452C1947.19 251.452 1967.19 257.645 1979.32 270.032C1991.45 282.161 1997.52 302.032 1997.52 329.645V357.129H1944.1ZM1881.77 462.419C1864.22 462.419 1850.29 458.032 1839.97 449.258C1829.64 440.226 1824.48 428.097 1824.48 412.871C1824.48 401 1827.32 391.452 1833 384.226C1838.93 376.742 1846.42 370.677 1855.45 366.032C1864.48 361.387 1874.03 357.645 1884.1 354.806C1894.42 351.71 1904.1 348.871 1913.13 346.29C1922.42 343.452 1929.9 340.097 1935.58 336.226C1941.52 332.097 1944.48 326.806 1944.48 320.355L1946.03 339.71C1944.22 344.613 1940.87 348.742 1935.97 352.097C1931.06 355.194 1925.52 358.161 1919.32 361C1913.13 363.839 1907.06 367.065 1901.13 370.677C1895.45 374.29 1890.68 378.806 1886.81 384.226C1882.93 389.387 1881 396.226 1881 404.742C1881 413.774 1883.32 420.871 1887.97 426.032C1892.87 431.194 1899.71 433.774 1908.48 433.774C1915.97 433.774 1923.06 431.839 1929.77 427.968C1936.48 423.839 1942.29 417.774 1947.19 409.774L1947.58 426.032C1939.58 438.161 1930.03 447.323 1918.93 453.516C1908.1 459.452 1895.71 462.419 1881.77 462.419ZM1997.52 424.484C1997.52 430.419 1998.42 434.677 2000.22 437.258C2002.03 439.839 2005 441.129 2009.13 441.129C2012.74 441.129 2016.22 440.355 2019.58 438.806C2023.19 437.258 2026.81 435.194 2030.42 432.613L2036.61 445C2030.16 450.677 2022.68 454.935 2014.16 457.774C2005.64 460.871 1996.1 462.419 1985.52 462.419C1971.32 462.419 1960.87 459.452 1954.16 453.516C1947.45 447.581 1944.1 438.29 1944.1 425.645V357.129H1997.52V424.484Z" fill="white"/>
<path d="M1998.22 200.32L1991.26 235H1983.04L1990 200.32H1980.28L1981.72 193.12H2009.38L2007.94 200.32H1998.22ZM2038.64 212.56L2040.68 204.4H2039.84L2034.92 212.62L2025.44 227.98L2021.66 212.62L2020.22 204.4H2019.38L2018.72 212.56L2014.22 235H2006.42L2014.82 193.12H2023.34L2026.94 207.94L2027.9 214.54H2028.5L2031.92 207.94L2041.28 193.12H2050.34L2041.94 235H2034.14L2038.64 212.56Z" fill="#00A172"/>
</svg>
