<svg width="640" height="640" viewBox="0 0 640 640" fill="none" xmlns="http://www.w3.org/2000/svg">
<path d="M160 432C221.856 432 272 381.856 272 320C272 258.144 221.856 208 160 208C98.1441 208 48 258.144 48 320C48 381.856 98.1441 432 160 432Z" fill="#1D9E75"/>
<path opacity="0.55" d="M512 200C551.765 200 584 167.765 584 128C584 88.2355 551.765 56 512 56C472.235 56 440 88.2355 440 128C440 167.765 472.235 200 512 200Z" fill="#1D9E75"/>
<path opacity="0.55" d="M512 584C551.765 584 584 551.765 584 512C584 472.235 551.765 440 512 440C472.235 440 440 472.235 440 512C440 551.765 472.235 584 512 584Z" fill="#1D9E75"/>
<path opacity="0.5" d="M272 256L448 160" stroke="#1D9E75" stroke-width="50"/>
<path opacity="0.5" d="M272 384L448 480" stroke="#1D9E75" stroke-width="50"/>
</svg>
