<svg width="1425" height="750" viewBox="0 0 1425 750" fill="none" xmlns="http://www.w3.org/2000/svg">
<path d="M650.441 333.5C650.441 383.206 103.147 652 53.4411 652C3.73546 652 310.941 383.206 310.941 333.5C310.941 283.794 3.73546 0 53.4411 0C103.147 0 650.441 283.794 650.441 333.5Z" fill="#00A172"/>
<circle cx="111" cy="326" r="111" fill="#00A172"/>
<circle cx="569" cy="159" r="40" fill="#00A172"/>
<path d="M579.941 652C576.61 652 572.03 651.917 566.201 651.75C560.371 651.417 554.542 651.25 548.712 651.25C543.716 651.25 538.552 651.334 533.223 651.5C527.893 651.5 522.896 651.584 518.233 651.75C513.569 651.75 509.655 651.833 506.49 652V642.256L516.484 641.507C521.98 640.841 526.061 639.925 528.726 638.759C531.557 637.426 533.472 635.428 534.472 632.763C535.471 629.931 535.971 625.934 535.971 620.771V506.347C535.971 501.184 535.471 497.27 534.472 494.605C533.472 491.773 531.557 489.692 528.726 488.359C526.061 487.027 521.98 486.111 516.484 485.611L506.49 484.861V475.118C509.655 475.118 513.569 475.201 518.233 475.368C522.896 475.534 527.893 475.701 533.223 475.867C538.552 475.867 543.716 475.867 548.712 475.867C554.542 475.867 560.371 475.784 566.201 475.618C572.03 475.284 576.61 475.118 579.941 475.118H585.937C617.583 475.118 641.4 482.28 657.39 496.604C673.546 510.927 681.624 531.997 681.624 559.811C681.624 579.298 677.793 595.954 670.131 609.778C662.47 623.436 651.394 633.929 636.903 641.257C622.58 648.419 605.258 652 584.938 652H579.941ZM582.939 642.506C607.756 642.506 625.827 636.177 637.153 623.519C648.646 610.861 654.392 590.791 654.392 563.309C654.392 535.661 648.729 515.674 637.403 503.349C626.244 491.024 608.089 484.861 582.939 484.861H561.204V621.27C561.204 627.266 561.704 631.763 562.703 634.761C563.869 637.759 565.951 639.841 568.949 641.007C572.113 642.007 576.777 642.506 582.939 642.506ZM736.763 588.043V554.815C736.763 547.486 735.347 542.406 732.515 539.575C729.684 536.577 724.604 534.662 717.276 533.829L708.781 533.079V523.586C711.946 523.752 714.861 523.919 717.525 524.085C720.19 524.085 723.022 524.085 726.02 524.085C733.015 524.085 739.428 523.835 745.257 523.336C751.086 522.67 756.333 521.753 760.997 520.588V523.586V588.043H736.763ZM748.755 651.25C740.927 651.25 733.931 651.334 727.769 651.5C721.606 651.667 715.277 651.833 708.781 652V642.256L717.525 641.507C724.687 641.007 729.684 639.342 732.515 636.51C735.347 633.512 736.763 628.432 736.763 621.27V588.043H760.997V621.27C760.997 628.432 762.329 633.512 764.994 636.51C767.825 639.342 772.822 641.007 779.984 641.507L788.978 642.256V652C782.482 651.833 776.153 651.667 769.991 651.5C763.828 651.334 756.749 651.25 748.755 651.25ZM748.755 493.855C744.091 493.855 740.011 492.273 736.513 489.109C733.182 485.777 731.516 481.697 731.516 476.867C731.516 472.203 733.182 468.206 736.513 464.875C740.011 461.544 744.091 459.878 748.755 459.878C753.585 459.878 757.665 461.544 760.997 464.875C764.328 468.206 765.993 472.203 765.993 476.867C765.993 481.697 764.328 485.777 760.997 489.109C757.665 492.273 753.585 493.855 748.755 493.855ZM845.868 651.25C838.04 651.25 831.044 651.334 824.882 651.5C818.719 651.667 812.39 651.833 805.894 652V642.256L814.638 641.507C821.8 641.007 826.797 639.342 829.629 636.51C832.46 633.512 833.876 628.432 833.876 621.27V588.043H858.11V621.27C858.11 628.432 859.442 633.512 862.107 636.51C864.938 639.342 869.935 641.007 877.097 641.507L886.091 642.256V652C879.595 651.833 873.266 651.667 867.104 651.5C860.941 651.334 853.862 651.25 845.868 651.25ZM833.876 588.043V490.108C833.876 482.779 832.46 477.699 829.629 474.868C826.797 471.87 821.717 470.038 814.389 469.372L805.894 468.622V458.879C809.059 459.045 811.974 459.212 814.638 459.378C817.303 459.378 820.135 459.378 823.133 459.378C830.128 459.378 836.541 459.129 842.37 458.629C848.199 457.963 853.446 457.047 858.11 455.881V458.879V588.043H833.876ZM929.779 588.043V554.815C929.779 547.486 928.363 542.406 925.531 539.575C922.7 536.577 917.62 534.662 910.292 533.829L901.797 533.079V523.586C904.962 523.752 907.876 523.919 910.541 524.085C913.206 524.085 916.038 524.085 919.036 524.085C926.031 524.085 932.443 523.835 938.273 523.336C944.102 522.67 949.349 521.753 954.012 520.588V523.586V588.043H929.779ZM941.771 651.25C933.942 651.25 926.947 651.334 920.785 651.5C914.622 651.667 908.293 651.833 901.797 652V642.256L910.541 641.507C917.703 641.007 922.7 639.342 925.531 636.51C928.363 633.512 929.779 628.432 929.779 621.27V588.043H954.012V621.27C954.012 628.432 955.345 633.512 958.01 636.51C960.841 639.342 965.838 641.007 973 641.507L981.994 642.256V652C975.498 651.833 969.169 651.667 963.006 651.5C956.844 651.334 949.765 651.25 941.771 651.25ZM941.771 493.855C937.107 493.855 933.026 492.273 929.529 489.109C926.198 485.777 924.532 481.697 924.532 476.867C924.532 472.203 926.198 468.206 929.529 464.875C933.026 461.544 937.107 459.878 941.771 459.878C946.601 459.878 950.681 461.544 954.012 464.875C957.344 468.206 959.009 472.203 959.009 476.867C959.009 481.697 957.344 485.777 954.012 489.109C950.681 492.273 946.601 493.855 941.771 493.855ZM1052.22 711.71C1035.73 711.71 1022.65 708.712 1012.99 702.716C1003.5 696.887 998.752 688.975 998.752 678.982C998.752 670.987 1001.58 663.909 1007.25 657.746C1013.08 651.75 1021.57 646.67 1032.73 642.506L1039.72 647.003C1034.23 649.335 1029.81 653.083 1026.48 658.246C1023.15 663.409 1021.49 669.072 1021.49 675.235C1021.49 683.729 1024.57 690.308 1030.73 694.971C1036.89 699.801 1045.47 702.217 1056.46 702.217C1065.12 702.217 1072.79 700.718 1079.45 697.72C1086.28 694.888 1091.61 690.891 1095.44 685.728C1099.44 680.564 1101.43 674.735 1101.43 668.239C1101.43 662.077 1099.52 657.413 1095.69 654.249C1092.02 651.25 1086.36 649.751 1078.7 649.751H1053.22C1043.06 649.751 1034.98 647.836 1028.98 644.005C1022.99 640.175 1019.99 635.011 1019.99 628.516C1019.99 623.519 1021.74 618.939 1025.23 614.775C1028.9 610.444 1034.23 606.364 1041.22 602.533L1049.72 603.782C1046.05 605.947 1043.39 608.196 1041.72 610.528C1040.06 612.859 1039.23 615.358 1039.23 618.023C1039.23 621.187 1040.56 623.602 1043.22 625.268C1045.89 626.933 1049.72 627.766 1054.71 627.766H1082.95C1096.27 627.766 1106.35 630.514 1113.18 636.011C1120.17 641.507 1123.67 649.502 1123.67 659.995C1123.67 669.988 1120.59 678.899 1114.43 686.727C1108.43 694.555 1100.02 700.634 1089.19 704.965C1078.53 709.462 1066.21 711.71 1052.22 711.71ZM1054.96 605.031C1039.81 605.031 1027.9 601.284 1019.24 593.789C1010.74 586.127 1006.5 575.634 1006.5 562.31C1006.5 548.985 1010.74 538.576 1019.24 531.081C1027.9 523.586 1039.81 519.838 1054.96 519.838C1069.95 519.838 1081.7 523.586 1090.19 531.081C1098.85 538.576 1103.18 548.985 1103.18 562.31C1103.18 575.634 1098.85 586.127 1090.19 593.789C1081.7 601.284 1069.95 605.031 1054.96 605.031ZM1054.96 595.787C1062.96 595.787 1068.87 593.039 1072.7 587.543C1076.7 582.047 1078.7 573.636 1078.7 562.31C1078.7 550.984 1076.7 542.656 1072.7 537.326C1068.87 531.83 1062.96 529.082 1054.96 529.082C1046.97 529.082 1040.97 531.83 1036.98 537.326C1033.15 542.656 1031.23 550.984 1031.23 562.31C1031.23 573.636 1033.15 582.047 1036.98 587.543C1040.97 593.039 1046.97 595.787 1054.96 595.787ZM1126.17 553.066C1122.84 553.066 1120.42 552.067 1118.92 550.068C1117.42 547.903 1116.26 545.488 1115.42 542.823C1114.59 539.991 1113.76 537.493 1112.93 535.328C1112.09 533.163 1110.84 532.08 1109.18 532.08C1108.18 532.08 1106.68 532.663 1104.68 533.829C1102.68 534.828 1100.68 536.327 1098.69 538.326C1096.69 540.158 1094.85 542.406 1093.19 545.071L1088.94 538.576C1092.44 533.246 1097.1 528.832 1102.93 525.334C1108.93 521.67 1114.84 519.838 1120.67 519.838C1126 519.838 1130.08 521.42 1132.91 524.585C1135.91 527.583 1137.41 531.913 1137.41 537.576C1137.41 542.406 1136.33 546.237 1134.16 549.069C1132.16 551.733 1129.5 553.066 1126.17 553.066ZM1183.6 588.043V554.815C1183.6 547.486 1182.19 542.406 1179.36 539.575C1176.52 536.577 1171.44 534.662 1164.12 533.829L1155.62 533.079V523.586C1158.79 523.752 1161.7 523.919 1164.37 524.085C1167.03 524.085 1169.86 524.085 1172.86 524.085C1179.86 524.085 1186.27 523.835 1192.1 523.336C1197.93 522.67 1203.17 521.753 1207.84 520.588V523.586V588.043H1183.6ZM1195.6 651.25C1187.77 651.25 1180.77 651.334 1174.61 651.5C1168.45 651.667 1162.12 651.833 1155.62 652V642.256L1164.37 641.507C1171.53 641.007 1176.52 639.342 1179.36 636.51C1182.19 633.512 1183.6 628.432 1183.6 621.27V588.043H1207.84V621.27C1207.84 628.432 1209.17 633.512 1211.83 636.51C1214.67 639.342 1219.66 641.007 1226.82 641.507L1235.82 642.256V652C1229.32 651.833 1222.99 651.667 1216.83 651.5C1210.67 651.334 1203.59 651.25 1195.6 651.25ZM1195.6 493.855C1190.93 493.855 1186.85 492.273 1183.35 489.109C1180.02 485.777 1178.36 481.697 1178.36 476.867C1178.36 472.203 1180.02 468.206 1183.35 464.875C1186.85 461.544 1190.93 459.878 1195.6 459.878C1200.43 459.878 1204.51 461.544 1207.84 464.875C1211.17 468.206 1212.83 472.203 1212.83 476.867C1212.83 481.697 1211.17 485.777 1207.84 489.109C1204.51 492.273 1200.43 493.855 1195.6 493.855ZM1338.51 588.043V554.065C1338.51 545.904 1336.17 539.825 1331.51 535.827C1326.85 531.83 1319.85 529.831 1310.52 529.831C1304.03 529.831 1298.53 530.747 1294.04 532.58C1289.71 534.412 1287.54 536.66 1287.54 539.325C1287.54 540.824 1288.04 542.49 1289.04 544.322C1290.21 546.154 1291.29 548.153 1292.29 550.318C1293.45 552.316 1294.04 554.565 1294.04 557.063C1294.04 560.228 1292.79 562.809 1290.29 564.808C1287.96 566.807 1284.79 567.806 1280.79 567.806C1276.13 567.806 1272.38 566.39 1269.55 563.559C1266.72 560.561 1265.3 556.564 1265.3 551.567C1265.3 545.404 1267.55 539.991 1272.05 535.328C1276.55 530.498 1282.71 526.75 1290.54 524.085C1298.37 521.254 1307.28 519.838 1317.27 519.838C1333.26 519.838 1344.75 523.586 1351.75 531.081C1358.91 538.409 1362.49 550.151 1362.49 566.307V588.043H1338.51ZM1297.53 655.498C1286.21 655.498 1277.21 652.583 1270.55 646.753C1263.89 640.757 1260.56 632.763 1260.56 622.769C1260.56 614.941 1262.39 608.612 1266.05 603.782C1269.89 598.952 1274.72 595.121 1280.54 592.29C1286.54 589.292 1292.87 586.96 1299.53 585.294C1306.19 583.462 1312.44 581.714 1318.27 580.048C1324.27 578.382 1329.18 576.384 1333.01 574.052C1336.84 571.72 1338.76 568.472 1338.76 564.308L1339.76 576.8C1338.42 579.965 1335.67 582.546 1331.51 584.545C1327.51 586.544 1323.02 588.376 1318.02 590.041C1313.02 591.707 1308.11 593.706 1303.28 596.037C1298.45 598.369 1294.45 601.45 1291.29 605.281C1288.12 608.945 1286.54 613.859 1286.54 620.021C1286.54 626.184 1288.37 631.097 1292.04 634.761C1295.7 638.426 1300.78 640.258 1307.28 640.258C1313.77 640.258 1319.85 638.509 1325.51 635.011C1331.18 631.514 1336.17 626.35 1340.5 619.522V630.015C1335.34 638.676 1329.18 645.088 1322.02 649.252C1314.86 653.416 1306.69 655.498 1297.53 655.498ZM1362.49 631.264C1362.49 635.261 1363.16 638.176 1364.49 640.008C1365.99 641.84 1368.15 642.756 1370.98 642.756C1373.65 642.756 1376.4 642.09 1379.23 640.757C1382.06 639.258 1384.89 637.51 1387.72 635.511L1392.22 643.506C1388.06 647.336 1383.56 650.251 1378.73 652.25C1374.07 654.415 1368.65 655.498 1362.49 655.498C1354.33 655.498 1348.25 653.666 1344.25 650.001C1340.42 646.171 1338.51 640.424 1338.51 632.763V588.043H1362.49V631.264Z" fill="white"/>
<path d="M1374.23 507H1366.08V472.639H1354.24V465.612H1386.07V472.639H1374.23V507ZM1397.81 493.347V507H1390.95V465.612H1399.44L1406.24 489.303H1406.73L1413.47 465.612H1421.98V507H1415.13V493.347L1416.16 476.826H1415.56L1409.22 497.277H1403.71L1397.38 476.826H1396.77L1397.81 493.347Z" fill="#00A172"/>
</svg>
