<svg width="2051" height="640" viewBox="0 0 2051 640" fill="none" xmlns="http://www.w3.org/2000/svg">
<path d="M160 432C221.856 432 272 381.856 272 320C272 258.144 221.856 208 160 208C98.1441 208 48 258.144 48 320C48 381.856 98.1441 432 160 432Z" fill="#1D9E75"/>
<path opacity="0.55" d="M512 200C551.765 200 584 167.765 584 128C584 88.2355 551.765 56 512 56C472.235 56 440 88.2355 440 128C440 167.765 472.235 200 512 200Z" fill="#1D9E75"/>
<path opacity="0.55" d="M512 584C551.765 584 584 551.765 584 512C584 472.235 551.765 440 512 440C472.235 440 440 472.235 440 512C440 551.765 472.235 584 512 584Z" fill="#1D9E75"/>
<path opacity="0.5" d="M272 256L448 160" stroke="#1D9E75" stroke-width="50"/>
<path opacity="0.5" d="M272 384L448 480" stroke="#1D9E75" stroke-width="50"/>
<path d="M777.419 457C772 457 764.774 456.871 755.742 456.613C746.968 456.097 738.194 455.839 729.419 455.839C721.161 455.839 712.516 455.968 703.484 456.226C694.71 456.226 686.323 456.355 678.323 456.613C670.323 456.613 663.484 456.742 657.806 457V441.903L670.968 440.742C678.968 439.968 684.903 438.677 688.774 436.871C692.903 434.806 695.613 431.71 696.903 427.581C698.194 423.194 698.839 416.871 698.839 408.613V231.323C698.839 223.065 698.194 216.871 696.903 212.742C695.613 208.355 692.903 205.258 688.774 203.452C684.903 201.387 678.968 199.968 670.968 199.194L657.806 198.032V182.935C663.484 182.935 670.323 183.065 678.323 183.323C686.323 183.581 694.71 183.839 703.484 184.097C712.516 184.097 721.161 184.097 729.419 184.097C738.194 184.097 746.968 183.968 755.742 183.71C764.774 183.194 772 182.935 777.419 182.935H788.645C841.29 182.935 881.032 194.032 907.871 216.226C934.71 238.419 948.129 271.065 948.129 314.161C948.129 344.097 941.677 369.774 928.774 391.194C916.129 412.355 897.806 428.613 873.806 439.968C850.065 451.323 821.29 457 787.484 457H777.419ZM789.032 442.29C822.839 442.29 847.484 432.484 862.968 412.871C878.71 393 886.581 361.903 886.581 319.581C886.581 277 878.839 246.032 863.355 226.677C847.871 207.323 822.968 197.645 788.645 197.645H758.065V409.387C758.065 418.419 758.839 425.387 760.387 430.29C761.935 434.935 764.903 438.161 769.29 439.968C773.935 441.516 780.516 442.29 789.032 442.29ZM1018.94 357.129V303.323C1018.94 292.484 1017.13 285 1013.52 280.871C1009.91 276.742 1002.94 274.161 992.615 273.129L982.55 271.968V256.871C988.486 257.387 993.905 257.774 998.808 258.032C1003.71 258.032 1009.13 258.032 1015.07 258.032C1026.42 258.032 1036.74 257.645 1046.03 256.871C1055.58 255.839 1064.49 254.419 1072.74 252.613V256.871V357.129H1018.94ZM1046.03 455.839C1034.16 455.839 1023.32 455.968 1013.52 456.226C1003.97 456.484 993.647 456.742 982.55 457V441.903L993.002 441.129C1003.07 440.097 1009.91 437.516 1013.52 433.387C1017.13 429.258 1018.94 422.032 1018.94 411.71V357.129H1072.74V411.71C1072.74 422.032 1074.55 429.258 1078.16 433.387C1081.78 437.516 1088.61 440.097 1098.68 441.129L1109.13 441.903V457C1098.29 456.742 1087.97 456.484 1078.16 456.226C1068.36 455.968 1057.65 455.839 1046.03 455.839ZM1046.03 217.774C1036.74 217.774 1028.61 215.065 1021.65 209.645C1014.94 203.968 1011.58 196.226 1011.58 186.419C1011.58 177.129 1014.94 169.774 1021.65 164.355C1028.61 158.677 1036.74 155.839 1046.03 155.839C1055.32 155.839 1063.32 158.677 1070.03 164.355C1077 169.774 1080.49 177.258 1080.49 186.806C1080.49 196.355 1077 203.968 1070.03 209.645C1063.32 215.065 1055.32 217.774 1046.03 217.774ZM1194.63 455.839C1182.76 455.839 1171.92 455.968 1162.11 456.226C1152.56 456.484 1142.24 456.742 1131.14 457V441.903L1141.6 441.129C1151.66 440.097 1158.5 437.516 1162.11 433.387C1165.72 429.258 1167.53 422.032 1167.53 411.71V357.129H1221.34V411.71C1221.34 422.032 1223.14 429.258 1226.76 433.387C1230.37 437.516 1237.21 440.097 1247.27 441.129L1257.72 441.903V457C1246.89 456.742 1236.56 456.484 1226.76 456.226C1216.95 455.968 1206.24 455.839 1194.63 455.839ZM1167.53 357.129V204.226C1167.53 193.645 1165.72 186.29 1162.11 182.161C1158.5 178.032 1151.53 175.323 1141.21 174.032L1131.14 173.258V158.161C1137.08 158.419 1142.5 158.677 1147.4 158.935C1152.31 158.935 1157.72 158.935 1163.66 158.935C1175.02 158.935 1185.34 158.548 1194.63 157.774C1204.18 156.742 1213.08 155.452 1221.34 153.903V158.161V357.129H1167.53ZM1358.19 549.516C1330.84 549.516 1309.55 545 1294.32 535.968C1279.1 527.194 1271.48 515.71 1271.48 501.516C1271.48 489.645 1276.13 479.323 1285.42 470.548C1294.71 461.774 1308.26 454.419 1326.07 448.484L1336.13 453.903C1329.68 457.774 1324.52 463.194 1320.65 470.161C1317.03 477.129 1315.23 484.742 1315.23 493C1315.23 506.419 1319.74 516.742 1328.78 523.968C1337.81 531.194 1350.58 534.806 1367.1 534.806C1380.26 534.806 1391.74 532.613 1401.55 528.226C1411.36 524.097 1419.1 518.29 1424.78 510.806C1430.45 503.581 1433.29 495.194 1433.29 485.645C1433.29 476.613 1430.32 469.774 1424.39 465.129C1418.71 460.742 1410.07 458.548 1398.45 458.548H1357.42C1340.65 458.548 1327.36 455.323 1317.55 448.871C1307.74 442.161 1302.84 433.387 1302.84 422.548C1302.84 413.516 1305.94 405.258 1312.13 397.774C1318.32 390.032 1327.87 382.677 1340.78 375.71L1353.94 377.258C1349.03 380.613 1345.55 383.968 1343.48 387.323C1341.42 390.419 1340.39 393.774 1340.39 397.387C1340.39 402.548 1342.58 406.548 1346.97 409.387C1351.61 411.968 1358.07 413.258 1366.32 413.258H1408.9C1431.36 413.258 1448.52 417.774 1460.39 426.806C1472.26 435.839 1478.19 449.129 1478.19 466.677C1478.19 482.935 1473.16 497.258 1463.1 509.645C1453.03 522.29 1438.97 532.097 1420.9 539.065C1403.1 546.032 1382.19 549.516 1358.19 549.516ZM1365.94 379.581C1340.9 379.581 1321.16 373.903 1306.71 362.548C1292.52 351.194 1285.42 335.452 1285.42 315.323C1285.42 295.452 1292.52 279.839 1306.71 268.484C1321.16 257.129 1340.9 251.452 1365.94 251.452C1390.97 251.452 1410.45 257.129 1424.39 268.484C1438.32 279.581 1445.29 295.194 1445.29 315.323C1445.29 335.452 1438.32 351.194 1424.39 362.548C1410.45 373.903 1390.97 379.581 1365.94 379.581ZM1366.32 364.871C1376.39 364.871 1384 360.871 1389.16 352.871C1394.32 344.613 1396.9 332.097 1396.9 315.323C1396.9 298.548 1394.32 286.161 1389.16 278.161C1384.26 269.903 1376.65 265.774 1366.32 265.774C1356.26 265.774 1348.65 269.903 1343.48 278.161C1338.32 286.161 1335.74 298.548 1335.74 315.323C1335.74 332.097 1338.32 344.613 1343.48 352.871C1348.65 360.871 1356.26 364.871 1366.32 364.871ZM1479.74 304.484C1474.58 304.484 1470.71 302.806 1468.13 299.452C1465.81 296.097 1463.87 292.226 1462.32 287.839C1461.03 283.452 1459.61 279.71 1458.07 276.613C1456.52 273.258 1454.19 271.581 1451.1 271.581C1449.55 271.581 1447.36 272.484 1444.52 274.29C1441.68 275.839 1438.71 278.161 1435.61 281.258C1432.78 284.097 1430.07 287.839 1427.48 292.484L1420.9 280.871C1426.32 272.097 1433.55 265 1442.58 259.581C1451.61 254.161 1460.9 251.452 1470.45 251.452C1478.97 251.452 1485.81 253.903 1490.97 258.806C1496.13 263.71 1498.71 270.548 1498.71 279.323C1498.71 286.806 1496.9 292.871 1493.29 297.516C1489.94 302.161 1485.42 304.484 1479.74 304.484ZM1554.72 357.129V303.323C1554.72 292.484 1552.91 285 1549.3 280.871C1545.69 276.742 1538.72 274.161 1528.4 273.129L1518.33 271.968V256.871C1524.27 257.387 1529.69 257.774 1534.59 258.032C1539.49 258.032 1544.91 258.032 1550.85 258.032C1562.2 258.032 1572.53 257.645 1581.82 256.871C1591.36 255.839 1600.27 254.419 1608.53 252.613V256.871V357.129H1554.72ZM1581.82 455.839C1569.94 455.839 1559.11 455.968 1549.3 456.226C1539.75 456.484 1529.43 456.742 1518.33 457V441.903L1528.78 441.129C1538.85 440.097 1545.69 437.516 1549.3 433.387C1552.91 429.258 1554.72 422.032 1554.72 411.71V357.129H1608.53V411.71C1608.53 422.032 1610.33 429.258 1613.94 433.387C1617.56 437.516 1624.4 440.097 1634.46 441.129L1644.91 441.903V457C1634.07 456.742 1623.75 456.484 1613.94 456.226C1604.14 455.968 1593.43 455.839 1581.82 455.839ZM1581.82 217.774C1572.53 217.774 1564.4 215.065 1557.43 209.645C1550.72 203.968 1547.36 196.226 1547.36 186.419C1547.36 177.129 1550.72 169.774 1557.43 164.355C1564.4 158.677 1572.53 155.839 1581.82 155.839C1591.11 155.839 1599.11 158.677 1605.82 164.355C1612.78 169.774 1616.27 177.258 1616.27 186.806C1616.27 196.355 1612.78 203.968 1605.82 209.645C1599.11 215.065 1591.11 217.774 1581.82 217.774ZM1705.19 357.129V303.323C1705.19 292.484 1703.38 285 1699.77 280.871C1696.16 276.742 1689.19 274.161 1678.86 273.129L1668.8 271.968V256.871C1674.74 257.387 1680.16 257.774 1685.06 258.032C1689.96 258.032 1695.38 258.032 1701.32 258.032C1712.67 258.032 1722.99 257.645 1732.28 256.871C1741.83 255.839 1750.74 254.419 1758.99 252.613V256.871V357.129H1705.19ZM1732.28 455.839C1720.41 455.839 1709.57 455.968 1699.77 456.226C1690.22 456.484 1679.9 456.742 1668.8 457V441.903L1679.25 441.129C1689.32 440.097 1696.16 437.516 1699.77 433.387C1703.38 429.258 1705.19 422.032 1705.19 411.71V357.129H1758.99V411.71C1758.99 422.032 1760.8 429.258 1764.41 433.387C1768.03 437.516 1774.86 440.097 1784.93 441.129L1795.38 441.903V457C1784.54 456.742 1774.22 456.484 1764.41 456.226C1754.61 455.968 1743.9 455.839 1732.28 455.839ZM1732.28 217.774C1722.99 217.774 1714.86 215.065 1707.9 209.645C1701.19 203.968 1697.83 196.226 1697.83 186.419C1697.83 177.129 1701.19 169.774 1707.9 164.355C1714.86 158.677 1722.99 155.839 1732.28 155.839C1741.57 155.839 1749.57 158.677 1756.28 164.355C1763.25 169.774 1766.74 177.258 1766.74 186.806C1766.74 196.355 1763.25 203.968 1756.28 209.645C1749.57 215.065 1741.57 217.774 1732.28 217.774ZM1945.5 357.129V306.032C1945.5 292.613 1942.28 282.806 1935.82 276.613C1929.63 270.161 1920.08 266.935 1907.18 266.935C1898.41 266.935 1891.18 268.226 1885.5 270.806C1880.08 273.387 1877.37 276.742 1877.37 280.871C1877.37 283.71 1878.41 286.806 1880.47 290.161C1882.53 293.258 1884.47 296.613 1886.28 300.226C1888.34 303.581 1889.37 307.323 1889.37 311.452C1889.37 317.129 1886.92 321.774 1882.02 325.387C1877.11 328.742 1870.79 330.419 1863.05 330.419C1854.02 330.419 1846.92 327.968 1841.76 323.065C1836.6 317.903 1834.02 311.065 1834.02 302.548C1834.02 292.484 1837.63 283.581 1844.86 275.839C1852.08 268.097 1862.28 262.161 1875.44 258.032C1888.6 253.645 1903.7 251.452 1920.73 251.452C1948.6 251.452 1968.6 257.645 1980.73 270.032C1992.86 282.161 1998.92 302.032 1998.92 329.645V357.129H1945.5ZM1883.18 462.419C1865.63 462.419 1851.7 458.032 1841.37 449.258C1831.05 440.226 1825.89 428.097 1825.89 412.871C1825.89 401 1828.73 391.452 1834.41 384.226C1840.34 376.742 1847.82 370.677 1856.86 366.032C1865.89 361.387 1875.44 357.645 1885.5 354.806C1895.82 351.71 1905.5 348.871 1914.53 346.29C1923.82 343.452 1931.31 340.097 1936.99 336.226C1942.92 332.097 1945.89 326.806 1945.89 320.355L1947.44 339.71C1945.63 344.613 1942.28 348.742 1937.37 352.097C1932.47 355.194 1926.92 358.161 1920.73 361C1914.53 363.839 1908.47 367.065 1902.53 370.677C1896.86 374.29 1892.08 378.806 1888.21 384.226C1884.34 389.387 1882.41 396.226 1882.41 404.742C1882.41 413.774 1884.73 420.871 1889.37 426.032C1894.28 431.194 1901.11 433.774 1909.89 433.774C1917.37 433.774 1924.47 431.839 1931.18 427.968C1937.89 423.839 1943.7 417.774 1948.6 409.774L1948.99 426.032C1940.99 438.161 1931.44 447.323 1920.34 453.516C1909.5 459.452 1897.11 462.419 1883.18 462.419ZM1998.92 424.484C1998.92 430.419 1999.82 434.677 2001.63 437.258C2003.44 439.839 2006.41 441.129 2010.53 441.129C2014.15 441.129 2017.63 440.355 2020.99 438.806C2024.6 437.258 2028.21 435.194 2031.82 432.613L2038.02 445C2031.57 450.677 2024.08 454.935 2015.57 457.774C2007.05 460.871 1997.5 462.419 1986.92 462.419C1972.73 462.419 1962.28 459.452 1955.57 453.516C1948.86 447.581 1945.5 438.29 1945.5 425.645V357.129H1998.92V424.484Z" fill="white"/>
<path d="M1998.22 200.32L1991.26 235H1983.04L1990 200.32H1980.28L1981.72 193.12H2009.38L2007.94 200.32H1998.22ZM2038.64 212.56L2040.68 204.4H2039.84L2034.92 212.62L2025.44 227.98L2021.66 212.62L2020.22 204.4H2019.38L2018.72 212.56L2014.22 235H2006.42L2014.82 193.12H2023.34L2026.94 207.94L2027.9 214.54H2028.5L2031.92 207.94L2041.28 193.12H2050.34L2041.94 235H2034.14L2038.64 212.56Z" fill="#00A172"/>
</svg>
